<?xml version="1.0" encoding="UTF-8"?><!DOCTYPE svg PUBLIC "-//W3C//DTD SVG 1.1//EN" "http://www.w3.org/Graphics/SVG/1.1/DTD/svg11.dtd"><svg xmlns="http://www.w3.org/2000/svg" xmlns:xlink="http://www.w3.org/1999/xlink"><symbol id="group-12"><g fill="#333" fill-rule="evenodd" opacity=".5"><path d="M6 12A6 6 0 116 0a6 6 0 010 12zm0-2a4 4 0 100-8 4 4 0 000 8z"/><path d="M8.71 11.123a.999.999 0 01-.003-1.416.994.994 0 011.416.002l3.532 3.532a.999.999 0 01.002 1.416.994.994 0 01-1.416-.002l-3.532-3.532z"/></g></symbol><symbol id="ic-chevron-right"><g fill="none" fill-rule="evenodd"><path fill="#5E6D82" d="M2 0L.59 1.41 5.17 6 .59 10.59 2 12l6-6z"/><path d="M-8-6h24v24H-8z"/></g></symbol><symbol id="ic-cloud-download"><g fill="none" fill-rule="evenodd" opacity=".5"><path d="M0-4h24v24H0z"/><path fill="#333" d="M19.35 6.04A7.49 7.49 0 0012 0C9.11 0 6.6 1.64 5.35 4.04A5.994 5.994 0 000 10c0 3.31 2.69 6 6 6h13c2.76 0 5-2.24 5-5 0-2.64-2.05-4.78-4.65-4.96zM17 9l-5 5-5-5h3V5h4v4h3z"/></g></symbol><symbol id="ic-keyboard-arrow-down"><g fill="none" fill-rule="evenodd" opacity=".5"><path fill="#333" d="M.94.893L4 3.947 7.06.893l.94.94-4 4-4-4z"/><path d="M-4-4.833h16v16H-4z"/></g></symbol><symbol id="ic-keyboard-arrow-down_2"><g fill="none" fill-rule="evenodd" opacity=".5"><path fill="#333" d="M.94.893L4 3.947 7.06.893l.94.94-4 4-4-4z"/><path d="M-4-4.833h16v16H-4z"/></g></symbol><symbol id="ic-swap-vert"><path fill="#5C6E83" fill-rule="evenodd" d="M15 7.01V0h-2v7.01h-3L14 11l4-3.99h-3zM4 0L0 3.99h3V11h2V3.99h3L4 0z" opacity=".5"/></symbol><symbol id="rectangle-copy-2"><rect width="80" height="33" x=".5" y=".5" fill="none" stroke="#00C16C" rx="16.5"/></symbol><symbol id="rectangle-copy-3"><rect width="80" height="33" x=".5" y=".5" fill="none" stroke="#00C16C" rx="16.5"/></symbol><symbol id="rectangle-copy-4"><rect width="80" height="33" x=".5" y=".5" fill="none" stroke="#00C16C" rx="16.5"/></symbol><symbol id="rectangle-copy-5"><rect width="80" height="33" x=".5" y=".5" fill="none" stroke="#00C16C" rx="16.5"/></symbol><symbol id="rectangle-copy-6"><rect width="80" height="33" x=".5" y=".5" fill="none" stroke="#00C16C" rx="16.5"/></symbol><symbol id="rectangle-copy-7"><rect width="80" height="33" x=".5" y=".5" fill="none" stroke="#00C16C" rx="16.5"/></symbol><symbol id="rectangle-copy-8"><rect width="80" height="33" x=".5" y=".5" fill="none" stroke="#00C16C" rx="16.5"/></symbol><symbol id="rectangle-copy-9"><rect width="80" height="33" x=".5" y=".5" fill="none" stroke="#00C16C" rx="16.5"/></symbol><symbol id="rectangle-copy"><rect width="80" height="33" x=".5" y=".5" fill="none" stroke="#00C16C" rx="16.5"/></symbol><symbol id="rectangle"><rect width="80" height="33" x=".5" y=".5" fill="none" stroke="#00C16C" rx="16.5"/></symbol><symbol id="view-copy-2"><text fill="#00C16C" fill-rule="evenodd" font-family="Helvetica" font-size="14" letter-spacing="-.01" transform="translate(-25 -12)"><tspan x="24.94" y="23">View </tspan></text></symbol><symbol id="view-copy-3"><text fill="#00C16C" fill-rule="evenodd" font-family="Helvetica" font-size="14" letter-spacing="-.01" transform="translate(-25 -12)"><tspan x="24.94" y="23">View </tspan></text></symbol><symbol id="view-copy-4"><text fill="#00C16C" fill-rule="evenodd" font-family="Helvetica" font-size="14" letter-spacing="-.01" transform="translate(-25 -12)"><tspan x="24.94" y="23">View </tspan></text></symbol><symbol id="view-copy-5"><text fill="#00C16C" fill-rule="evenodd" font-family="Helvetica" font-size="14" letter-spacing="-.01" transform="translate(-25 -12)"><tspan x="24.94" y="23">View </tspan></text></symbol><symbol id="view-copy-6"><text fill="#00C16C" fill-rule="evenodd" font-family="Helvetica" font-size="14" letter-spacing="-.01" transform="translate(-25 -12)"><tspan x="24.94" y="23">View </tspan></text></symbol><symbol id="view-copy-7"><text fill="#00C16C" fill-rule="evenodd" font-family="Helvetica" font-size="14" letter-spacing="-.01" transform="translate(-25 -12)"><tspan x="24.94" y="23">View </tspan></text></symbol><symbol id="view-copy-8"><text fill="#00C16C" fill-rule="evenodd" font-family="Helvetica" font-size="14" letter-spacing="-.01" transform="translate(-25 -12)"><tspan x="24.94" y="23">View </tspan></text></symbol><symbol id="view-copy-9"><text fill="#00C16C" fill-rule="evenodd" font-family="Helvetica" font-size="14" letter-spacing="-.01" transform="translate(-25 -12)"><tspan x="24.94" y="23">View </tspan></text></symbol><symbol id="view-copy"><text fill="#00C16C" fill-rule="evenodd" font-family="Helvetica" font-size="14" letter-spacing="-.01" transform="translate(-25 -12)"><tspan x="24.94" y="23">View </tspan></text></symbol><symbol id="view"><text fill="#00C16C" fill-rule="evenodd" font-family="Helvetica" font-size="14" letter-spacing="-.01" transform="translate(-25 -12)"><tspan x="24.94" y="23">View </tspan></text></symbol><symbol id="logo_molitva-po-soglash_RF_02" viewBox="0 0 133.167 30.52"><linearGradient id="logo_molitva-po-soglash_RF_02-a" gradientUnits="userSpaceOnUse" x1="-7.704" y1="522.392" x2="-7.704" y2="529.006" gradientTransform="translate(50.81 -2410.63) scale(4.6146)"><stop offset="0" stop-color="#f5a81c"></stop><stop offset="1" stop-color="#ce6f28"></stop></linearGradient><path fill="url(#logo_molitva-po-soglash_RF_02-a)" d="M2.248 0h26.024a2.262 2.262 0 0 1 2.248 2.248v26.025a2.261 2.261 0 0 1-2.248 2.247H2.248A2.262 2.262 0 0 1 0 28.272V2.248A2.262 2.262 0 0 1 2.248 0z"></path><path opacity=".25" fill="#FFF" d="M23.895 30.52h-4.377L9.25 0h2.484l12.161 30.52zm-7.05 0h-4.85L6.128 0h2.531l8.186 30.52zM3.218 0H5.56l3.88 30.52H5.3L3.218 0z"></path><path fill="#FFF" d="M16.798 10.883v9.866l2.839.852v3.194l-2.839-.852v6.577h-3.076v-7.5l-2.839-.852v-3.194l2.839.852v-8.943H5.678V7.807h8.044V0h3.076v7.807h8.044v3.076h-8.044z"></path><g fill="#CA6C29"><path d="M41.813 18.128c-.084.726-.126 1.631-.126 2.718 0 .715.019 1.466.058 2.252h-1.088c0-1.056.076-2.433.229-4.13h-.061c-.038.16-.12.42-.245.779-.125.359-.374.965-.748 1.819s-.57 1.364-.587 1.532h-.829c0-.201-.096-.73-.288-1.588-.192-.857-.308-1.414-.347-1.668s-.075-.546-.105-.874h-.057a89.004 89.004 0 0 1-.313 2.191c-.176 1.168-.264 1.814-.264 1.939h-.985c0-.069.165-.857.493-2.365.328-1.507.507-2.376.538-2.605h1.389c0 .349.094.979.281 1.892.187.912.28 1.532.28 1.86h.058c.025-.247.246-.876.662-1.889s.635-1.634.658-1.863h1.397zM47.167 20.27c0 .786-.252 1.477-.758 2.072-.505.596-1.141.893-1.906.893-.58 0-1.059-.213-1.437-.641-.378-.427-.567-.966-.567-1.614 0-.794.254-1.487.763-2.079.509-.591 1.144-.887 1.905-.887.58 0 1.059.213 1.435.639s.565.965.565 1.617zm-1.011.072c0-.456-.111-.819-.334-1.091a1.04 1.04 0 0 0-.838-.409c-.443 0-.798.214-1.065.641a2.61 2.61 0 0 0-.401 1.409c0 .456.111.82.332 1.093.222.274.5.411.836.411.44 0 .795-.216 1.065-.649s.405-.901.405-1.405zM51.709 18.128c-.074.674-.156 1.447-.248 2.317a39.557 39.557 0 0 0-.198 2.653h-1.054c.107-.733.211-1.583.313-2.55a50 50 0 0 0 .153-1.664h-.569c-.056.196-.125.406-.206.63s-.172.454-.271.689-.206.47-.321.704c-.114.234-.236.46-.364.678-.128.217-.262.42-.399.608a4.012 4.012 0 0 1-.422.495 2.148 2.148 0 0 1-.435.337.975.975 0 0 1-.429.138l.065-.954c.091-.018.2-.092.324-.222s.258-.299.399-.509.284-.45.429-.72c.145-.27.285-.553.42-.849s.259-.597.372-.903c.113-.305.207-.598.281-.878h2.16zM56.824 18.128c-.059.379-.168 1.25-.328 2.611a28.288 28.288 0 0 0-.161 2.359h-1.061c.036-.178.12-.813.252-1.905.036-.343.107-.834.214-1.473h-.057c-.132.298-.602.891-1.409 1.779-.733.807-1.113 1.339-1.141 1.599h-.786c.051-.303.152-1.089.305-2.359.097-.914.155-1.784.176-2.611h1.061c-.048.295-.139.994-.271 2.096-.036.336-.103.762-.203 1.279h.058c.137-.291.612-.879 1.423-1.768.73-.796 1.109-1.332 1.138-1.607h.79zM61.305 18.128l-.11.821a17.323 17.323 0 0 0-1.359-.057c-.03.231-.09.767-.179 1.607-.104.984-.17 1.851-.195 2.599h-1.053c.053-.369.16-1.235.32-2.599.061-.578.112-1.113.152-1.607-.341 0-.812.021-1.412.061l.118-.825h3.718zM65.347 21.495c0 1.084-.842 1.626-2.526 1.626-.272 0-.709-.008-1.31-.023.051-.349.157-1.215.317-2.599.097-.926.151-1.716.164-2.371h.626c.109 0 .303-.003.58-.011s.489-.012.638-.012c.458 0 .821.086 1.091.258.271.172.405.426.405.762 0 .285-.089.539-.266.763s-.404.37-.682.439l-.004.057c.255.043.479.158.674.344.196.185.293.441.293.767zm-.98.053c0-.442-.398-.664-1.195-.664-.165 0-.321.006-.469.019a31.884 31.884 0 0 0-.126 1.47c.106.021.241.03.404.03.496 0 .852-.068 1.065-.206.213-.137.321-.354.321-.649zm-.042-2.145c0-.387-.25-.58-.748-.58-.25 0-.481.019-.695.057 0 .104-.035.546-.106 1.325.114.005.223.007.324.007.817 0 1.225-.27 1.225-.809zM70.023 23.098h-1.16c0-.277-.062-.753-.184-1.428h-1.671c-.092.216-.171.413-.237.588-.163.417-.248.697-.256.84h-1.092c.008-.094.376-.909 1.104-2.445s1.1-2.377 1.114-2.525h1.367c0 .288.169 1.111.507 2.47.339 1.359.508 2.192.508 2.5zm-1.45-2.157c-.265-1.305-.397-2.015-.397-2.129h-.057c-.011.089-.299.799-.866 2.129h1.32zM76.405 18.128a93.1 93.1 0 0 0-.29 2.355c-.1.955-.164 1.826-.194 2.615h-1.05c.046-.326.146-1.166.302-2.519.059-.55.123-1.101.194-1.653h-1.748c-.016.331-.051.865-.107 1.603a35.664 35.664 0 0 0-.194 2.569h-1.05c.057-.384.162-1.237.317-2.557.092-.863.14-1.667.145-2.413h3.675zM81.599 20.27c0 .786-.253 1.477-.758 2.072-.505.596-1.141.893-1.906.893-.58 0-1.06-.213-1.438-.641-.378-.427-.566-.966-.566-1.614 0-.794.254-1.487.764-2.079.509-.591 1.144-.887 1.904-.887.58 0 1.059.213 1.436.639.376.426.564.965.564 1.617zm-1.012.072c0-.456-.111-.819-.334-1.091a1.04 1.04 0 0 0-.838-.409c-.442 0-.797.214-1.064.641a2.6 2.6 0 0 0-.4 1.409c0 .456.11.82.332 1.093.221.274.5.411.836.411.439 0 .795-.216 1.064-.649s.404-.901.404-1.405zM87.382 18.167l-.218.881a2.405 2.405 0 0 0-.805-.145c-.512 0-.913.188-1.205.565-.291.376-.437.826-.437 1.347 0 .433.123.798.368 1.096s.603.447 1.07.447c.301 0 .635-.055 1.004-.165l-.156.878c-.404.086-.748.13-1.03.13-.769 0-1.345-.222-1.728-.666s-.574-.978-.574-1.601c0-.809.274-1.491.824-2.044.55-.554 1.235-.83 2.058-.83.296 0 .572.035.829.107zM92.344 20.27c0 .786-.253 1.477-.758 2.072-.505.596-1.141.893-1.906.893-.58 0-1.06-.213-1.438-.641-.378-.427-.566-.966-.566-1.614 0-.794.254-1.487.764-2.079.509-.591 1.144-.887 1.904-.887.58 0 1.059.213 1.436.639.376.426.564.965.564 1.617zm-1.011.072c0-.456-.111-.819-.334-1.091a1.04 1.04 0 0 0-.838-.409c-.442 0-.797.214-1.064.641a2.6 2.6 0 0 0-.4 1.409c0 .456.11.82.332 1.093.221.274.5.411.836.411.439 0 .795-.216 1.064-.649s.404-.901.404-1.405zM96.41 18.128l-.115.852a41.421 41.421 0 0 0-2.064-.058 59.6 59.6 0 0 1-.138 1.817c-.112 1.059-.176 1.845-.19 2.359h-1.027c.046-.311.146-1.135.302-2.473.117-1.112.177-1.944.18-2.497h3.052zM100.626 18.128a916.2 916.2 0 0 0-.248 2.317 39.557 39.557 0 0 0-.198 2.653h-1.054c.107-.733.211-1.583.313-2.55.07-.671.122-1.227.152-1.664h-.568a9.753 9.753 0 0 1-.207.63 15.15 15.15 0 0 1-.591 1.393c-.115.234-.236.46-.365.678a7.52 7.52 0 0 1-.398.608 4.1 4.1 0 0 1-.422.495 2.148 2.148 0 0 1-.435.337.975.975 0 0 1-.43.138l.064-.954c.092-.018.2-.092.325-.222.124-.13.257-.299.398-.509s.284-.45.43-.72c.145-.27.284-.553.42-.849.135-.296.259-.597.372-.903.113-.305.206-.598.28-.878h2.162zM105.313 23.098h-1.16c0-.277-.062-.753-.184-1.428h-1.671c-.092.216-.171.413-.237.588-.163.417-.248.697-.256.84h-1.092c.008-.094.376-.909 1.104-2.445s1.1-2.377 1.114-2.525h1.367c0 .288.169 1.111.507 2.47.339 1.359.508 2.192.508 2.5zm-1.45-2.157c-.265-1.305-.397-2.015-.397-2.129h-.057c-.011.089-.299.799-.866 2.129h1.32zM112 18.128c-.054.364-.156 1.201-.309 2.512a32.587 32.587 0 0 0-.176 2.458h-5.611c.051-.351.151-1.17.302-2.458.1-.954.159-1.792.18-2.512h1.046a91.493 91.493 0 0 0-.298 2.443l-.188 1.748h1.359l.183-1.713c.104-.985.166-1.811.184-2.478h1.046a91.493 91.493 0 0 0-.298 2.443l-.176 1.748h1.352l.18-1.713c.104-.985.164-1.811.179-2.478H112zM116.092 18.128l-.118.836a34.389 34.389 0 0 0-1.958-.061c-.018.272-.051.689-.099 1.252.504 0 1.044-.014 1.622-.042l-.088.798a36.053 36.053 0 0 0-1.611-.038c-.053.517-.097 1-.129 1.45.661 0 1.371-.021 2.13-.065l-.123.84h-3.084c.054-.349.161-1.215.321-2.599.097-.926.151-1.716.164-2.371h2.973zM120.898 18.128c-.049.288-.149 1.078-.302 2.371a36.286 36.286 0 0 0-.188 2.599h-1.061c.053-.397.143-1.127.267-2.191h-1.824c-.059.555-.11 1.285-.156 2.191h-1.065c.057-.384.163-1.25.321-2.599a30.08 30.08 0 0 0 .164-2.371h1.064c-.051.333-.136.995-.256 1.985h1.848a23.93 23.93 0 0 0 .118-1.985h1.07zM126.008 18.128c-.059.379-.168 1.25-.328 2.611a27.823 27.823 0 0 0-.16 2.359h-1.062c.036-.178.12-.813.252-1.905.036-.343.106-.834.214-1.473h-.058c-.132.298-.602.891-1.408 1.779-.732.807-1.113 1.339-1.142 1.599h-.786a73.54 73.54 0 0 0 .306-2.359c.097-.914.155-1.784.176-2.611h1.061c-.048.295-.139.994-.271 2.096-.036.336-.104.762-.202 1.279h.057c.138-.291.612-.879 1.424-1.768.73-.796 1.109-1.332 1.138-1.607h.789zM132.963 20.235c0 .817-.235 1.521-.704 2.113-.47.592-1.095.887-1.876.887-.624 0-1.095-.2-1.412-.601-.318-.401-.478-.967-.478-1.7 0-.028.003-.056.008-.084h-.642a28.9 28.9 0 0 0-.148 2.248h-1.065c.054-.359.16-1.225.321-2.599a28.89 28.89 0 0 0 .164-2.371h1.061c-.038.242-.123.91-.256 2.004h.691c.176-.669.475-1.189.896-1.561.423-.372.932-.557 1.527-.557.588 0 1.053.208 1.396.626s.517.949.517 1.595zm-.996.065c0-.448-.101-.804-.3-1.069a.955.955 0 0 0-.8-.397c-.435 0-.778.216-1.03.649s-.378.925-.378 1.478c0 .448.1.801.3 1.059a.967.967 0 0 0 .807.387c.431 0 .771-.217 1.023-.653.252-.435.378-.92.378-1.454z"></path></g><g fill="#292929"><path d="M41.745 8.542c-.063.41-.188 1.428-.376 3.055a52.128 52.128 0 0 0-.252 3.392h-1.362c.06-.422.19-1.512.391-3.268.076-.713.16-1.428.252-2.144H38.13a79.26 79.26 0 0 1-.139 2.08c-.142 1.347-.226 2.458-.252 3.333h-1.362c.072-.499.209-1.604.411-3.318.119-1.119.181-2.162.188-3.129h4.769zM47.554 10.146c0 .789-.289 1.386-.867 1.79s-1.349.606-2.313.606c-.122 0-.214-.003-.277-.01a36.471 36.471 0 0 0-.153 2.456h-1.372c.066-.426.205-1.55.416-3.372.125-1.188.196-2.213.213-3.075h.861c.116 0 .34-.005.674-.015.333-.01.621-.015.861-.015.542 0 1.003.144 1.384.431.382.288.573.689.573 1.204zm-1.248.213c0-.611-.411-.916-1.233-.916-.221 0-.454.025-.698.074-.017.281-.078.987-.183 2.119.076.007.167.01.272.01 1.228.001 1.842-.428 1.842-1.287zM53.437 14.989h-1.505c0-.36-.08-.977-.238-1.852h-2.169c-.119.281-.221.535-.307.763-.211.542-.322.904-.332 1.089H47.47c.01-.122.487-1.179 1.431-3.171.944-1.992 1.426-3.084 1.446-3.276h1.772c0 .373.22 1.441.659 3.204.439 1.763.659 2.844.659 3.243zm-1.882-2.798c-.343-1.693-.515-2.614-.515-2.763h-.074c-.013.116-.388 1.037-1.124 2.763h1.713zM59.18 12.91c0 1.406-1.093 2.109-3.278 2.109-.353 0-.919-.01-1.698-.03.066-.452.203-1.576.411-3.372.125-1.202.196-2.227.213-3.075h.812c.142 0 .393-.005.752-.015.36-.01.636-.015.827-.015.594 0 1.066.112 1.416.334.351.223.524.552.524.988 0 .37-.114.7-.344.99s-.524.48-.884.57l-.005.074c.33.056.622.205.874.445.254.242.38.574.38.997zm-1.273.069c0-.575-.517-.862-1.55-.862-.214 0-.417.008-.609.025a45.91 45.91 0 0 0-.164 1.906c.139.026.313.04.525.04.644 0 1.104-.089 1.382-.267s.416-.459.416-.842zm-.054-2.783c0-.501-.324-.752-.971-.752-.323 0-.624.025-.901.074 0 .135-.046.708-.139 1.718.148.007.289.01.421.01 1.06 0 1.59-.35 1.59-1.05zM67.727 8.542a8.465 8.465 0 0 0-.242.54c-.291.772-.572 1.335-.845 1.688a2.54 2.54 0 0 1-1.037.797l-.005.055c.393.139.688.386.886.743.198.356.411 1.05.64 2.08.029.139.079.32.148.545h-1.441a2.719 2.719 0 0 1-.089-.337c-.139-.97-.307-1.624-.503-1.961a.956.956 0 0 0-.879-.505.39.39 0 0 0-.113.02 36.57 36.57 0 0 0-.179 2.53l-.01.252h-1.322c.06-.413.174-1.34.342-2.783a.704.704 0 0 0-.139-.02c-.393 0-.718.161-.973.483-.256.322-.561.983-.914 1.983-.04.112-.094.225-.163.337h-1.421c.056-.105.143-.287.262-.545.462-1.076.824-1.78 1.085-2.112a2.13 2.13 0 0 1 1.039-.71l.006-.055a1.882 1.882 0 0 1-.874-.777c-.193-.336-.356-.906-.488-1.708a4.449 4.449 0 0 0-.129-.54h1.283c.022.04.049.142.079.307.105 1.581.556 2.372 1.352 2.372.026 0 .06-.003.099-.01.09-.861.149-1.751.179-2.669h1.327c-.066.459-.177 1.349-.332 2.669.03.007.058.01.084.01.786 0 1.398-.791 1.838-2.372a.955.955 0 0 1 .144-.307h1.305zM74.07 8.542c-.076.492-.218 1.621-.426 3.387a36.673 36.673 0 0 0-.208 3.06h-1.377c.046-.231.155-1.055.327-2.471.046-.446.139-1.083.277-1.912h-.074c-.172.386-.781 1.155-1.827 2.308-.951 1.046-1.444 1.738-1.481 2.075h-1.02c.066-.393.198-1.413.396-3.06.125-1.185.201-2.314.228-3.387h1.376c-.063.383-.18 1.289-.352 2.719-.046.436-.133.989-.262 1.659h.074c.178-.376.794-1.141 1.847-2.292.947-1.033 1.439-1.729 1.476-2.085h1.026zM79.498 9.825c0 .373-.121.706-.362.998a1.8 1.8 0 0 1-.916.597l-.01.074a1.5 1.5 0 0 1 .856.466c.234.25.352.584.352 1 0 .727-.272 1.276-.816 1.649-.545.373-1.276.56-2.194.56-.687 0-1.297-.103-1.832-.307l.248-1.109a3.79 3.79 0 0 0 1.693.391c1.083 0 1.624-.356 1.624-1.07 0-.591-.576-.886-1.728-.886-.235 0-.506.007-.813.02l.232-1.025c.287.017.563.025.827.025 1.023 0 1.535-.343 1.535-1.03a.616.616 0 0 0-.287-.54c-.191-.128-.444-.193-.758-.193-.653 0-1.233.096-1.738.287l.243-1.04c.538-.171 1.189-.257 1.956-.257.57 0 1.028.122 1.371.367.345.242.517.584.517 1.023zM85.875 8.542c-.063.373-.193 1.398-.392 3.075a45.9 45.9 0 0 0-.242 3.372h-1.377c.069-.515.186-1.462.347-2.842h-2.367a54.21 54.21 0 0 0-.202 2.842H80.26c.072-.499.211-1.623.416-3.372.122-1.172.193-2.197.213-3.075h1.382c-.066.433-.177 1.291-.332 2.575h2.396c.079-.75.13-1.608.153-2.575h1.387zM91.584 12.731c0 .766-.282 1.338-.847 1.718-.565.379-1.344.569-2.338.569-.333 0-.901-.01-1.703-.03.066-.459.203-1.583.411-3.372.135-1.304.206-2.329.213-3.075h1.382c-.04.215-.145 1.007-.313 2.377.29-.017.526-.025.708-.025.71 0 1.302.149 1.775.448s.712.763.712 1.39zm-1.288.084c0-.634-.472-.951-1.416-.951-.185 0-.383.008-.594.025-.073.69-.134 1.41-.184 2.159.185.026.354.04.505.04 1.127 0 1.689-.424 1.689-1.273zM93.857 14.023c0 .281-.094.52-.282.718a.935.935 0 0 1-.708.297c-.215 0-.379-.067-.492-.203a.75.75 0 0 1-.171-.5.97.97 0 0 1 .284-.708.958.958 0 0 1 .706-.287c.442 0 .663.228.663.683zM99.888 10.146c0 .789-.289 1.386-.866 1.79-.578.404-1.349.606-2.313.606-.122 0-.215-.003-.277-.01a37.042 37.042 0 0 0-.154 2.456h-1.371c.066-.426.204-1.55.416-3.372.125-1.188.196-2.213.213-3.075h.861c.115 0 .34-.005.674-.015.333-.01.62-.015.861-.015.541 0 1.003.144 1.384.431.382.288.572.689.572 1.204zm-1.248.213c0-.611-.411-.916-1.232-.916-.222 0-.454.025-.698.074-.017.281-.078.987-.184 2.119.076.007.167.01.272.01 1.228.001 1.842-.428 1.842-1.287zM106.623 11.226c0 .799-.257 1.428-.771 1.889-.513.46-1.205.74-2.077.839-.029.39-.044.735-.044 1.035h-1.214c.021-.142.066-.487.139-1.035-.802-.069-1.392-.297-1.77-.683s-.567-.868-.567-1.446c0-.799.255-1.426.766-1.882.51-.456 1.202-.733 2.077-.832.026-.34.034-.614.024-.822h1.213c-.017.096-.056.37-.118.822.805.069 1.396.296 1.774.679s.568.861.568 1.436zm-3.521-1.317c-1.097.146-1.645.788-1.645 1.926 0 .746.435 1.187 1.303 1.322a111.612 111.612 0 0 0 .342-3.248zm2.377 1.322c0-.746-.435-1.187-1.303-1.322a93.942 93.942 0 0 0-.337 3.248c1.093-.145 1.64-.787 1.64-1.926z"></path></g></symbol><symbol id="moon" viewBox="0 0 22.973 24.001"><path d="M20.063 17.668c-3.983.575-7.837-1.464-9.815-4.918-2.036-3.554-1.845-8.015.488-11.365a.904.904 0 0 0 .041-.961.823.823 0 0 0-.83-.416c-1.538.222-2.999.76-4.341 1.6C.15 5.021-1.631 12.437 1.635 18.138c3.276 5.719 10.362 7.563 15.817 4.15a11.673 11.673 0 0 0 3.4-3.243.904.904 0 0 0 .041-.961.823.823 0 0 0-.83-.416zM13.611 4.513l-.286.984c-.057.195.152.358.315.245l.82-.567.941.299c.187.06.342-.159.235-.329l-.543-.858.286-.984c.057-.196-.152-.358-.315-.245l-.821.567-.941-.299c-.187-.06-.342.158-.235.329l.544.858zm7.862 6.977l-.504-.19-.182-.527a.205.205 0 0 0-.392 0l-.182.527-.504.19c-.184.069-.184.341 0 .41l.504.19.181.527a.205.205 0 0 0 .392 0l.182-.527.504-.19c.185-.069.185-.341.001-.41zm1.362-9.649l-.267-.101-.096-.279a.206.206 0 0 0-.393 0l-.096.279-.267.101c-.184.069-.184.341 0 .41l.267.1.096.279a.206.206 0 0 0 .393 0l.096-.279.267-.1c.184-.069.184-.34 0-.41z"></path></symbol></svg>