<?xml version="1.0" encoding="utf-8"?><svg xmlns="http://www.w3.org/2000/svg" xmlns:xlink="http://www.w3.org/1999/xlink"><symbol viewBox="0 0 14 15" id="group-12" xmlns="http://www.w3.org/2000/svg"><g fill="#333" fill-rule="evenodd" opacity=".5"><path d="M6 12A6 6 0 116 0a6 6 0 010 12zm0-2a4 4 0 100-8 4 4 0 000 8z"/><path d="M8.71 11.123a.999.999 0 01-.003-1.416.994.994 0 011.416.002l3.532 3.532a.999.999 0 01.002 1.416.994.994 0 01-1.416-.002l-3.532-3.532z"/></g></symbol><symbol viewBox="0 0 8 12" id="ic-chevron-right" xmlns="http://www.w3.org/2000/svg"><g fill="none" fill-rule="evenodd"><path fill="#5E6D82" d="M2 0L.59 1.41 5.17 6 .59 10.59 2 12l6-6z"/><path d="M-8-6h24v24H-8z"/></g></symbol><symbol viewBox="0 0 24 16" id="ic-cloud-download" xmlns="http://www.w3.org/2000/svg"><g fill="none" fill-rule="evenodd" opacity=".5"><path d="M0-4h24v24H0z"/><path fill="#333" d="M19.35 6.04A7.49 7.49 0 0012 0C9.11 0 6.6 1.64 5.35 4.04A5.994 5.994 0 000 10c0 3.31 2.69 6 6 6h13c2.76 0 5-2.24 5-5 0-2.64-2.05-4.78-4.65-4.96zM17 9l-5 5-5-5h3V5h4v4h3z"/></g></symbol><symbol viewBox="0 0 8 6" id="ic-keyboard-arrow-down" xmlns="http://www.w3.org/2000/svg"><g fill="none" fill-rule="evenodd" opacity=".5"><path fill="#333" d="M.94.893L4 3.947 7.06.893l.94.94-4 4-4-4z"/><path d="M-4-4.833h16v16H-4z"/></g></symbol><symbol viewBox="0 0 8 6" id="ic-keyboard-arrow-down_2" xmlns="http://www.w3.org/2000/svg"><g fill="none" fill-rule="evenodd" opacity=".5"><path fill="#333" d="M.94.893L4 3.947 7.06.893l.94.94-4 4-4-4z"/><path d="M-4-4.833h16v16H-4z"/></g></symbol><symbol viewBox="0 0 18 11" id="ic-swap-vert" xmlns="http://www.w3.org/2000/svg"><path fill="#5C6E83" fill-rule="evenodd" d="M15 7.01V0h-2v7.01h-3L14 11l4-3.99h-3zM4 0L0 3.99h3V11h2V3.99h3L4 0z" opacity=".5"/></symbol><symbol viewBox="0 0 81 34" id="rectangle" xmlns="http://www.w3.org/2000/svg"><rect width="80" height="33" x=".5" y=".5" fill="none" stroke="#00C16C" rx="16.5"/></symbol><symbol viewBox="0 0 81 34" id="rectangle-copy" xmlns="http://www.w3.org/2000/svg"><rect width="80" height="33" x=".5" y=".5" fill="none" stroke="#00C16C" rx="16.5"/></symbol><symbol viewBox="0 0 81 34" id="rectangle-copy-2" xmlns="http://www.w3.org/2000/svg"><rect width="80" height="33" x=".5" y=".5" fill="none" stroke="#00C16C" rx="16.5"/></symbol><symbol viewBox="0 0 81 34" id="rectangle-copy-3" xmlns="http://www.w3.org/2000/svg"><rect width="80" height="33" x=".5" y=".5" fill="none" stroke="#00C16C" rx="16.5"/></symbol><symbol viewBox="0 0 81 34" id="rectangle-copy-4" xmlns="http://www.w3.org/2000/svg"><rect width="80" height="33" x=".5" y=".5" fill="none" stroke="#00C16C" rx="16.5"/></symbol><symbol viewBox="0 0 81 34" id="rectangle-copy-5" xmlns="http://www.w3.org/2000/svg"><rect width="80" height="33" x=".5" y=".5" fill="none" stroke="#00C16C" rx="16.5"/></symbol><symbol viewBox="0 0 81 34" id="rectangle-copy-6" xmlns="http://www.w3.org/2000/svg"><rect width="80" height="33" x=".5" y=".5" fill="none" stroke="#00C16C" rx="16.5"/></symbol><symbol viewBox="0 0 81 34" id="rectangle-copy-7" xmlns="http://www.w3.org/2000/svg"><rect width="80" height="33" x=".5" y=".5" fill="none" stroke="#00C16C" rx="16.5"/></symbol><symbol viewBox="0 0 81 34" id="rectangle-copy-8" xmlns="http://www.w3.org/2000/svg"><rect width="80" height="33" x=".5" y=".5" fill="none" stroke="#00C16C" rx="16.5"/></symbol><symbol viewBox="0 0 81 34" id="rectangle-copy-9" xmlns="http://www.w3.org/2000/svg"><rect width="80" height="33" x=".5" y=".5" fill="none" stroke="#00C16C" rx="16.5"/></symbol><symbol viewBox="0 0 30 12" id="view" xmlns="http://www.w3.org/2000/svg"><text fill="#00C16C" fill-rule="evenodd" font-family="Helvetica" font-size="14" letter-spacing="-.01" transform="translate(-25 -12)"><tspan x="24.94" y="23">View </tspan></text></symbol><symbol viewBox="0 0 30 12" id="view-copy" xmlns="http://www.w3.org/2000/svg"><text fill="#00C16C" fill-rule="evenodd" font-family="Helvetica" font-size="14" letter-spacing="-.01" transform="translate(-25 -12)"><tspan x="24.94" y="23">View </tspan></text></symbol><symbol viewBox="0 0 30 12" id="view-copy-2" xmlns="http://www.w3.org/2000/svg"><text fill="#00C16C" fill-rule="evenodd" font-family="Helvetica" font-size="14" letter-spacing="-.01" transform="translate(-25 -12)"><tspan x="24.94" y="23">View </tspan></text></symbol><symbol viewBox="0 0 30 12" id="view-copy-3" xmlns="http://www.w3.org/2000/svg"><text fill="#00C16C" fill-rule="evenodd" font-family="Helvetica" font-size="14" letter-spacing="-.01" transform="translate(-25 -12)"><tspan x="24.94" y="23">View </tspan></text></symbol><symbol viewBox="0 0 30 12" id="view-copy-4" xmlns="http://www.w3.org/2000/svg"><text fill="#00C16C" fill-rule="evenodd" font-family="Helvetica" font-size="14" letter-spacing="-.01" transform="translate(-25 -12)"><tspan x="24.94" y="23">View </tspan></text></symbol><symbol viewBox="0 0 30 12" id="view-copy-5" xmlns="http://www.w3.org/2000/svg"><text fill="#00C16C" fill-rule="evenodd" font-family="Helvetica" font-size="14" letter-spacing="-.01" transform="translate(-25 -12)"><tspan x="24.94" y="23">View </tspan></text></symbol><symbol viewBox="0 0 30 12" id="view-copy-6" xmlns="http://www.w3.org/2000/svg"><text fill="#00C16C" fill-rule="evenodd" font-family="Helvetica" font-size="14" letter-spacing="-.01" transform="translate(-25 -12)"><tspan x="24.94" y="23">View </tspan></text></symbol><symbol viewBox="0 0 30 12" id="view-copy-7" xmlns="http://www.w3.org/2000/svg"><text fill="#00C16C" fill-rule="evenodd" font-family="Helvetica" font-size="14" letter-spacing="-.01" transform="translate(-25 -12)"><tspan x="24.94" y="23">View </tspan></text></symbol><symbol viewBox="0 0 30 12" id="view-copy-8" xmlns="http://www.w3.org/2000/svg"><text fill="#00C16C" fill-rule="evenodd" font-family="Helvetica" font-size="14" letter-spacing="-.01" transform="translate(-25 -12)"><tspan x="24.94" y="23">View </tspan></text></symbol><symbol viewBox="0 0 30 12" id="view-copy-9" xmlns="http://www.w3.org/2000/svg"><text fill="#00C16C" fill-rule="evenodd" font-family="Helvetica" font-size="14" letter-spacing="-.01" transform="translate(-25 -12)"><tspan x="24.94" y="23">View </tspan></text></symbol></svg>